<svg width="40" height="40" viewBox="0 0 40 40" fill="none" xmlns="http://www.w3.org/2000/svg">
<circle cx="20" cy="20" r="20" fill="#0E1245"/>
<path fill-rule="evenodd" clip-rule="evenodd" d="M23.3126 18.8302C24.6099 24.0751 27.2357 25.2006 27.2357 25.2006C27.2357 25.2006 22.7591 24.1926 19.7998 20.4568C17.9988 18.1831 16.2693 13.8607 16.2693 13.8607L22.9022 12.0402C22.9022 12.0402 22.5582 15.7809 23.3126 18.8302ZM17.1862 27.5223C23.4549 29.0058 29.1148 26.2405 29.1148 26.2405C29.1148 26.2405 25.3566 27.2858 19.6402 22.7417C16.3154 20.1004 13.6095 15.7647 13.6095 15.7647L7.94763 23.4401C7.94763 23.4401 13.3722 26.6168 17.1862 27.5223ZM26.594 23.5152C26.594 23.5152 25.7446 21.7447 27.371 18.4812C28.3166 16.5838 30.1233 14.8348 30.1233 14.8348L25.9512 12.7364C25.9512 12.7364 24.9478 15.7279 24.873 17.7076C24.7517 20.9616 26.594 23.5152 26.594 23.5152ZM29.4588 20.1484C27.4835 20.8054 27.1213 21.8874 27.1213 21.8874C27.1213 21.8874 27.3897 20.0657 28.7445 18.7823C29.5696 18.0012 31.1815 17.1941 31.1815 17.1941L32.0523 19.8077C32.0523 19.8077 30.609 19.7667 29.4588 20.1484Z" fill="white"/>
</svg>
