<svg width="169" height="28" viewBox="0 0 169 28" fill="none" xmlns="http://www.w3.org/2000/svg">
<path fill-rule="evenodd" clip-rule="evenodd" d="M14.5 0L17.8677 10.3647H28.7658L19.949 16.7705L23.3168 27.1353L14.5 20.7295L5.6832 27.1353L9.05091 16.7705L0.234131 10.3647H11.1323L14.5 0ZM49.5 0L52.8677 10.3647H63.7658L54.949 16.7705L58.3168 27.1353L49.5 20.7295L40.6832 27.1353L44.0509 16.7705L35.2341 10.3647H46.1323L49.5 0ZM87.8677 10.3647L84.5 0L81.1323 10.3647H70.2341L79.0509 16.7705L75.6832 27.1353L84.5 20.7295L93.3168 27.1353L89.9491 16.7705L98.7658 10.3647H87.8677ZM119.5 0L122.868 10.3647H133.766L124.949 16.7705L128.317 27.1353L119.5 20.7295L110.683 27.1353L114.051 16.7705L105.234 10.3647H116.132L119.5 0ZM157.868 10.3647L154.5 0L151.132 10.3647H140.234L149.051 16.7705L145.683 27.1353L154.5 20.7295L163.317 27.1353L159.949 16.7705L168.766 10.3647H157.868Z" fill="#8592AD"/>
<path fill-rule="evenodd" clip-rule="evenodd" d="M14.5 0L17.8677 10.3647H28.7658L19.949 16.7705L23.3168 27.1353L14.5 20.7295L5.6832 27.1353L9.05091 16.7705L0.234131 10.3647H11.1323L14.5 0ZM49.5 0L52.8677 10.3647H63.7658L54.949 16.7705L58.3168 27.1353L49.5 20.7295L40.6832 27.1353L44.0509 16.7705L35.2341 10.3647H46.1323L49.5 0ZM87.8677 10.3647L84.5 0L81.1323 10.3647H70.2341L79.0509 16.7705L75.6832 27.1353L84.5 20.7295L93.3168 27.1353L89.9491 16.7705L98.7658 10.3647H87.8677ZM119.5 0L122.868 10.3647H133.766L124.949 16.7705L128.317 27.1353L119.5 20.7295L110.683 27.1353L114.051 16.7705L105.234 10.3647H116.132L119.5 0ZM157.868 10.3647L154.5 0L151.132 10.3647H140.234L149.051 16.7705L145.683 27.1353L154.5 20.7295L163.317 27.1353L159.949 16.7705L168.766 10.3647H157.868Z" fill="url(#paint0_linear_11_29171)"/>
<defs>
<linearGradient id="paint0_linear_11_29171" x1="-29.5" y1="6.49999" x2="94.3363" y2="-101.88" gradientUnits="userSpaceOnUse">
<stop stop-color="#00C8D5"/>
<stop offset="0.449501" stop-color="#00D5BD"/>
<stop offset="1" stop-color="#ACFEB5"/>
</linearGradient>
</defs>
</svg>
